<svg version="1.1" id="Layer_1" xmlns="http://www.w3.org/2000/svg" xmlns:xlink="http://www.w3.org/1999/xlink" x="0px" y="0px"
	 width="100%" viewBox="0 0 244 219" enable-background="new 0 0 244 219" xml:space="preserve">
<path fill="#000000" opacity="1.000000" stroke="none" 
	d="
M1.000000,81.000000 
	C1.000000,54.000004 1.000000,27.500010 1.000000,1.000011 
	C82.333313,1.000007 163.666626,1.000007 244.999954,1.000004 
	C244.999969,73.999969 244.999969,146.999939 244.999985,219.999939 
	C163.666718,219.999954 82.333427,219.999954 1.000070,219.999969 
	C1.000000,173.833328 1.000000,127.666664 1.000000,81.000000 
M159.289017,114.216629 
	C153.657608,117.590546 151.614792,120.897537 153.217484,126.780952 
	C153.982315,129.588654 152.861389,130.630188 151.427917,132.070663 
	C145.432709,138.095184 139.397568,144.079956 133.401428,150.103546 
	C122.952797,160.600006 111.139717,169.279846 97.756737,175.561005 
	C87.691154,180.285172 76.954727,182.141296 65.833130,180.520569 
	C77.082726,179.425766 87.140465,175.199326 96.452583,169.020340 
	C113.739342,157.549896 128.276306,143.036682 141.889938,127.546318 
	C146.745438,122.021461 151.087387,116.039368 156.029846,110.598549 
	C160.464676,105.716537 163.505219,99.175171 172.052460,99.215851 
	C176.612030,99.237556 179.954224,92.552383 178.968857,88.077599 
	C177.844742,82.972649 172.829498,79.520981 167.235138,80.002022 
	C162.480316,80.410896 158.206497,84.714706 159.220917,89.826172 
	C160.326019,95.394608 157.905487,98.413017 154.590637,102.103859 
	C144.174683,113.701340 134.449203,125.925179 123.896088,137.390793 
	C118.012276,143.783371 111.215843,149.394791 104.481552,154.933762 
	C89.372475,167.361038 73.313469,177.256653 52.313091,174.075806 
	C41.412621,172.424759 31.545153,168.661407 23.681652,160.982178 
	C18.290487,155.717346 13.796122,149.534180 8.289038,143.040039 
	C9.290475,147.066025 9.914013,150.537445 11.018117,153.848648 
	C16.527357,170.370728 28.790270,181.647659 42.610638,190.586319 
	C63.375908,204.016754 86.312683,210.507599 111.580154,208.196335 
	C125.588448,206.914948 138.689865,203.391632 151.164780,197.319748 
	C174.364456,186.027847 193.323120,169.166016 210.705399,150.492416 
	C213.564346,147.421082 215.817169,145.811432 220.028366,145.855743 
	C224.902176,145.907013 229.677139,139.618362 228.966965,135.081635 
	C228.118332,129.660400 221.850174,124.976044 216.870377,126.041542 
	C211.218155,127.250931 207.605225,132.329361 208.946747,137.588654 
	C209.959167,141.557785 208.410629,144.365829 205.634460,146.876389 
	C194.995529,156.497482 184.689529,166.520172 173.645096,175.649994 
	C162.627518,184.757614 150.114227,191.626831 136.686493,196.707077 
	C124.950150,201.147415 112.519279,201.508896 100.268089,202.911728 
	C99.859337,202.958527 99.375587,202.350464 98.989594,202.090042 
	C107.532951,200.152969 116.117386,199.067657 124.078674,196.232498 
	C144.182343,189.073212 161.580093,177.056641 176.261948,161.892075 
	C194.232971,143.330170 210.895157,123.503197 228.251678,104.339539 
	C229.412888,103.057442 231.602234,102.306839 233.408432,102.085823 
	C238.233292,101.495422 243.038269,96.638115 242.999130,91.913689 
	C242.949585,85.933067 239.143524,82.246681 233.293930,81.949593 
	C226.749084,81.617172 221.087936,86.619019 223.197495,95.658386 
	C223.552979,97.181694 223.700119,99.441475 222.855804,100.453079 
	C211.406754,114.170265 200.298370,128.233322 188.008438,141.168259 
	C177.584213,152.139587 166.151260,162.263794 154.429062,171.864716 
	C136.397934,186.632858 115.611916,195.098694 92.046135,195.847977 
	C91.232025,195.873871 90.387215,194.934448 89.984222,194.696915 
	C95.097549,193.522476 100.364281,192.549606 105.493538,191.092712 
	C125.133110,185.514420 141.146011,173.606216 155.333649,159.762878 
	C171.138733,144.341339 185.384842,127.326561 200.477341,111.161964 
	C201.722839,109.827988 204.275162,109.058640 206.179749,109.128708 
	C210.464996,109.286331 212.441269,106.654419 214.073822,103.551331 
	C215.912323,100.056770 215.410873,96.649445 212.982986,93.493919 
	C210.488739,90.252098 207.079514,88.641411 203.231506,89.447517 
	C195.422226,91.083458 192.585983,98.417755 196.834091,106.602257 
	C183.415558,121.033752 170.056915,135.862747 156.180969,150.190735 
	C143.050644,163.748825 128.104202,175.004181 110.704468,182.688507 
	C99.841408,187.486008 88.184181,187.815567 76.586792,188.509445 
	C80.711617,187.174988 85.001755,186.549713 89.133095,185.368866 
	C107.785164,180.037567 122.801430,168.737625 136.675873,155.747086 
	C143.529053,149.330505 149.914566,142.415924 156.716339,135.941681 
	C157.956406,134.761322 160.191879,134.075409 161.956329,134.097153 
	C168.093521,134.172714 172.920364,129.827271 172.999542,123.703918 
	C173.086075,117.014542 169.014404,113.959328 159.289017,114.216629 
M183.997620,34.985348 
	C181.146240,35.614357 178.276382,36.170208 175.446472,36.884289 
	C157.458557,41.423244 143.831390,53.053703 130.606400,65.074097 
	C123.506721,71.527115 117.069107,78.747490 110.670609,85.922890 
	C103.123138,94.386780 95.959076,103.191902 88.588638,111.814774 
	C86.549881,114.199974 84.598412,116.354874 80.761803,116.117142 
	C75.423973,115.786385 71.739281,119.353760 71.022003,124.567627 
	C70.465462,128.613113 73.560814,133.490662 77.645958,135.005402 
	C86.329674,138.225296 92.500000,132.070984 90.969109,121.872459 
	C90.772018,120.559502 91.054161,118.747414 91.855179,117.779938 
	C97.836731,110.555359 103.682091,103.173920 110.183640,96.433395 
	C122.656586,83.501961 134.754547,70.033119 148.459045,58.513386 
	C162.944351,46.337326 179.549240,37.808891 199.883575,41.937279 
	C212.476425,44.493950 223.306320,49.800716 231.445770,59.944504 
	C234.655655,63.944813 237.690201,68.085823 241.332321,72.853607 
	C240.934753,70.317169 240.800110,68.518387 240.359848,66.797798 
	C236.814133,52.940376 228.759232,42.250736 217.823715,33.176224 
	C193.898315,13.322441 166.773453,4.997733 135.765274,7.852345 
	C116.432335,9.632133 99.471413,17.038425 83.438347,27.141607 
	C66.274757,37.957184 51.905186,52.102531 37.936558,66.644310 
	C35.745132,68.925644 33.553394,70.094200 30.225424,70.195328 
	C27.908766,70.265717 25.055000,71.626938 23.487766,73.358688 
	C20.431568,76.735703 20.974802,83.011719 23.884922,86.363930 
	C26.750105,89.664375 32.383659,90.396698 36.785881,88.040955 
	C40.794601,85.895798 42.267586,81.328232 41.097324,76.339920 
	C40.747311,74.847954 41.196312,72.486038 42.219475,71.463493 
	C49.728355,63.959160 57.263336,56.454594 65.192841,49.402996 
	C81.712013,34.712738 99.715424,22.518732 121.494682,16.735050 
	C131.880341,13.977046 142.320068,12.824649 152.986664,13.352406 
	C150.809845,14.115808 148.610550,14.796535 146.373932,14.957072 
	C134.595947,15.802462 123.690582,19.655605 113.361816,25.001471 
	C97.212540,33.359856 82.951271,44.385693 70.206650,57.332809 
	C62.875202,64.780739 55.496128,72.206917 48.585270,80.037193 
	C40.442810,89.262932 32.848381,98.970245 24.875496,108.349037 
	C22.467760,111.181343 20.668076,114.750549 15.568827,114.295258 
	C13.489728,114.109619 10.717391,116.571724 9.002353,118.491852 
	C5.447626,122.471657 6.527905,127.087509 9.492622,130.655930 
	C12.243866,133.967392 16.607878,135.138443 20.770298,133.560837 
	C25.400534,131.805923 28.385313,127.793747 26.803226,123.003609 
	C24.746714,116.777039 28.791599,113.684883 31.722313,109.813560 
	C32.519810,108.760109 33.638569,107.956245 34.506153,106.948517 
	C44.597370,95.227165 54.421722,83.263565 64.836952,71.838326 
	C71.189766,64.869446 78.360840,58.632072 85.311546,52.225803 
	C97.939880,40.586624 112.234566,31.526909 128.281906,25.363325 
	C139.458786,21.070431 158.749451,18.720520 165.379120,20.693295 
	C147.578598,22.157671 131.738785,28.046371 117.250175,37.908276 
	C103.379265,47.349735 90.968597,58.420570 79.745598,70.818214 
	C70.014091,81.568268 60.641335,92.642975 50.920700,103.403152 
	C49.656151,104.802948 47.328350,105.676842 45.377476,105.941055 
	C39.360569,106.755936 34.488319,111.507584 35.059662,116.935959 
	C35.722164,123.230408 39.837700,126.509598 46.173740,126.078415 
	C52.787125,125.628372 56.324863,120.332001 54.926422,112.650078 
	C54.639851,111.075867 55.008377,108.790100 56.009922,107.663582 
	C68.675735,93.417114 81.381699,79.201202 94.349579,65.230103 
	C104.018089,54.813606 115.301384,46.341511 127.468666,38.978535 
	C142.818573,29.689594 159.441711,26.277882 177.410461,27.136393 
	C171.237518,28.412333 165.248947,29.241877 159.507919,30.918877 
	C146.124725,34.828209 134.314285,41.939888 123.821297,50.898701 
	C114.818565,58.585136 106.599411,67.191849 98.071320,75.430496 
	C94.564941,78.817871 91.808594,82.818031 85.692276,82.206078 
	C80.753250,81.711922 78.067375,85.822670 77.172043,90.186714 
	C76.343376,94.225822 77.843506,97.678444 81.561050,100.304947 
	C85.396042,103.014450 89.118332,102.607185 92.637589,100.617073 
	C96.939148,98.184593 97.423790,93.826485 96.994682,89.294525 
	C96.872520,88.004326 96.582245,86.314796 97.227081,85.443146 
	C99.375877,82.538582 101.687279,79.674438 104.344414,77.240227 
	C113.713295,68.657326 122.869560,59.775784 132.821518,51.912498 
	C145.699478,41.737309 160.389450,35.186295 177.054352,34.076443 
	C179.592087,33.907440 182.187210,34.600456 183.997620,34.985348 
z"/>
<path fill="#62E1E9" opacity="1.000000" stroke="none" 
	d="
M159.694016,114.120270 
	C169.014404,113.959328 173.086075,117.014542 172.999542,123.703918 
	C172.920364,129.827271 168.093521,134.172714 161.956329,134.097153 
	C160.191879,134.075409 157.956406,134.761322 156.716339,135.941681 
	C149.914566,142.415924 143.529053,149.330505 136.675873,155.747086 
	C122.801430,168.737625 107.785164,180.037567 89.133095,185.368866 
	C85.001755,186.549713 80.711617,187.174988 76.586792,188.509445 
	C88.184181,187.815567 99.841408,187.486008 110.704468,182.688507 
	C128.104202,175.004181 143.050644,163.748825 156.180969,150.190735 
	C170.056915,135.862747 183.415558,121.033752 196.834091,106.602257 
	C192.585983,98.417755 195.422226,91.083458 203.231506,89.447517 
	C207.079514,88.641411 210.488739,90.252098 212.982986,93.493919 
	C215.410873,96.649445 215.912323,100.056770 214.073822,103.551331 
	C212.441269,106.654419 210.464996,109.286331 206.179749,109.128708 
	C204.275162,109.058640 201.722839,109.827988 200.477341,111.161964 
	C185.384842,127.326561 171.138733,144.341339 155.333649,159.762878 
	C141.146011,173.606216 125.133110,185.514420 105.493538,191.092712 
	C100.364281,192.549606 95.097549,193.522476 89.984222,194.696915 
	C90.387215,194.934448 91.232025,195.873871 92.046135,195.847977 
	C115.611916,195.098694 136.397934,186.632858 154.429062,171.864716 
	C166.151260,162.263794 177.584213,152.139587 188.008438,141.168259 
	C200.298370,128.233322 211.406754,114.170265 222.855804,100.453079 
	C223.700119,99.441475 223.552979,97.181694 223.197495,95.658386 
	C221.087936,86.619019 226.749084,81.617172 233.293930,81.949593 
	C239.143524,82.246681 242.949585,85.933067 242.999130,91.913689 
	C243.038269,96.638115 238.233292,101.495422 233.408432,102.085823 
	C231.602234,102.306839 229.412888,103.057442 228.251678,104.339539 
	C210.895157,123.503197 194.232971,143.330170 176.261948,161.892075 
	C161.580093,177.056641 144.182343,189.073212 124.078674,196.232498 
	C116.117386,199.067657 107.532951,200.152969 98.989594,202.090042 
	C99.375587,202.350464 99.859337,202.958527 100.268089,202.911728 
	C112.519279,201.508896 124.950150,201.147415 136.686493,196.707077 
	C150.114227,191.626831 162.627518,184.757614 173.645096,175.649994 
	C184.689529,166.520172 194.995529,156.497482 205.634460,146.876389 
	C208.410629,144.365829 209.959167,141.557785 208.946747,137.588654 
	C207.605225,132.329361 211.218155,127.250931 216.870377,126.041542 
	C221.850174,124.976044 228.118332,129.660400 228.966965,135.081635 
	C229.677139,139.618362 224.902176,145.907013 220.028366,145.855743 
	C215.817169,145.811432 213.564346,147.421082 210.705399,150.492416 
	C193.323120,169.166016 174.364456,186.027847 151.164780,197.319748 
	C138.689865,203.391632 125.588448,206.914948 111.580154,208.196335 
	C86.312683,210.507599 63.375908,204.016754 42.610638,190.586319 
	C28.790270,181.647659 16.527357,170.370728 11.018117,153.848648 
	C9.914013,150.537445 9.290475,147.066025 8.289038,143.040039 
	C13.796122,149.534180 18.290487,155.717346 23.681652,160.982178 
	C31.545153,168.661407 41.412621,172.424759 52.313091,174.075806 
	C73.313469,177.256653 89.372475,167.361038 104.481552,154.933762 
	C111.215843,149.394791 118.012276,143.783371 123.896088,137.390793 
	C134.449203,125.925179 144.174683,113.701340 154.590637,102.103859 
	C157.905487,98.413017 160.326019,95.394608 159.220917,89.826172 
	C158.206497,84.714706 162.480316,80.410896 167.235138,80.002022 
	C172.829498,79.520981 177.844742,82.972649 178.968857,88.077599 
	C179.954224,92.552383 176.612030,99.237556 172.052460,99.215851 
	C163.505219,99.175171 160.464676,105.716537 156.029846,110.598549 
	C151.087387,116.039368 146.745438,122.021461 141.889938,127.546318 
	C128.276306,143.036682 113.739342,157.549896 96.452583,169.020340 
	C87.140465,175.199326 77.082726,179.425766 65.833130,180.520569 
	C76.954727,182.141296 87.691154,180.285172 97.756737,175.561005 
	C111.139717,169.279846 122.952797,160.600006 133.401428,150.103546 
	C139.397568,144.079956 145.432709,138.095184 151.427917,132.070663 
	C152.861389,130.630188 153.982315,129.588654 153.217484,126.780952 
	C151.614792,120.897537 153.657608,117.590546 159.694016,114.120270 
M223.994705,136.357056 
	C223.826447,132.586090 221.659912,130.470078 218.124863,131.183746 
	C216.231171,131.566055 213.216049,133.970551 213.347672,135.173553 
	C213.594238,137.426971 215.284790,140.406342 217.232971,141.398636 
	C220.862259,143.247192 222.541092,139.951553 223.994705,136.357056 
M228.056046,94.367386 
	C228.615372,94.976105 229.207123,96.131805 229.728500,96.100883 
	C232.278687,95.949661 235.176483,96.081192 237.181992,94.854698 
	C238.083130,94.303612 237.978439,90.172699 236.891708,88.832870 
	C235.729889,87.400467 232.495239,86.318626 230.845108,86.927124 
	C228.413208,87.823906 225.648315,89.971619 228.056046,94.367386 
M203.115860,94.370728 
	C200.397827,95.831985 197.802917,97.833366 199.774734,101.055717 
	C200.894363,102.885406 203.926666,104.976181 205.620331,104.627975 
	C207.379257,104.266350 209.540131,101.219078 209.782272,99.142990 
	C210.209946,95.476540 207.533279,93.792084 203.115860,94.370728 
M167.996872,122.825493 
	C167.052383,119.731133 165.113953,116.934456 161.829285,118.333496 
	C159.769058,119.210999 157.516693,122.390549 157.490906,124.562660 
	C157.461670,127.025139 159.717133,129.358231 163.319901,129.076385 
	C166.969879,128.790833 168.223724,126.988121 167.996872,122.825493 
M173.072403,92.568314 
	C172.760925,90.264740 172.914169,87.726456 171.923904,85.765709 
	C171.488815,84.904251 168.411423,84.536484 167.083603,85.144775 
	C164.460831,86.346291 161.692291,88.271141 163.487320,91.918053 
	C165.261963,95.523544 169.106522,96.004951 173.072403,92.568314 
z"/>
<path fill="#0652E9" opacity="1.000000" stroke="none" 
	d="
M184.376709,34.940056 
	C182.187210,34.600456 179.592087,33.907440 177.054352,34.076443 
	C160.389450,35.186295 145.699478,41.737309 132.821518,51.912498 
	C122.869560,59.775784 113.713295,68.657326 104.344414,77.240227 
	C101.687279,79.674438 99.375877,82.538582 97.227081,85.443146 
	C96.582245,86.314796 96.872520,88.004326 96.994682,89.294525 
	C97.423790,93.826485 96.939148,98.184593 92.637589,100.617073 
	C89.118332,102.607185 85.396042,103.014450 81.561050,100.304947 
	C77.843506,97.678444 76.343376,94.225822 77.172043,90.186714 
	C78.067375,85.822670 80.753250,81.711922 85.692276,82.206078 
	C91.808594,82.818031 94.564941,78.817871 98.071320,75.430496 
	C106.599411,67.191849 114.818565,58.585136 123.821297,50.898701 
	C134.314285,41.939888 146.124725,34.828209 159.507919,30.918877 
	C165.248947,29.241877 171.237518,28.412333 177.410461,27.136393 
	C159.441711,26.277882 142.818573,29.689594 127.468666,38.978535 
	C115.301384,46.341511 104.018089,54.813606 94.349579,65.230103 
	C81.381699,79.201202 68.675735,93.417114 56.009922,107.663582 
	C55.008377,108.790100 54.639851,111.075867 54.926422,112.650078 
	C56.324863,120.332001 52.787125,125.628372 46.173740,126.078415 
	C39.837700,126.509598 35.722164,123.230408 35.059662,116.935959 
	C34.488319,111.507584 39.360569,106.755936 45.377476,105.941055 
	C47.328350,105.676842 49.656151,104.802948 50.920700,103.403152 
	C60.641335,92.642975 70.014091,81.568268 79.745598,70.818214 
	C90.968597,58.420570 103.379265,47.349735 117.250175,37.908276 
	C131.738785,28.046371 147.578598,22.157671 165.379120,20.693295 
	C158.749451,18.720520 139.458786,21.070431 128.281906,25.363325 
	C112.234566,31.526909 97.939880,40.586624 85.311546,52.225803 
	C78.360840,58.632072 71.189766,64.869446 64.836952,71.838326 
	C54.421722,83.263565 44.597370,95.227165 34.506153,106.948517 
	C33.638569,107.956245 32.519810,108.760109 31.722313,109.813560 
	C28.791599,113.684883 24.746714,116.777039 26.803226,123.003609 
	C28.385313,127.793747 25.400534,131.805923 20.770298,133.560837 
	C16.607878,135.138443 12.243866,133.967392 9.492622,130.655930 
	C6.527905,127.087509 5.447626,122.471657 9.002353,118.491852 
	C10.717391,116.571724 13.489728,114.109619 15.568827,114.295258 
	C20.668076,114.750549 22.467760,111.181343 24.875496,108.349037 
	C32.848381,98.970245 40.442810,89.262932 48.585270,80.037193 
	C55.496128,72.206917 62.875202,64.780739 70.206650,57.332809 
	C82.951271,44.385693 97.212540,33.359856 113.361816,25.001471 
	C123.690582,19.655605 134.595947,15.802462 146.373932,14.957072 
	C148.610550,14.796535 150.809845,14.115808 152.986664,13.352406 
	C142.320068,12.824649 131.880341,13.977046 121.494682,16.735050 
	C99.715424,22.518732 81.712013,34.712738 65.192841,49.402996 
	C57.263336,56.454594 49.728355,63.959160 42.219475,71.463493 
	C41.196312,72.486038 40.747311,74.847954 41.097324,76.339920 
	C42.267586,81.328232 40.794601,85.895798 36.785881,88.040955 
	C32.383659,90.396698 26.750105,89.664375 23.884922,86.363930 
	C20.974802,83.011719 20.431568,76.735703 23.487766,73.358688 
	C25.055000,71.626938 27.908766,70.265717 30.225424,70.195328 
	C33.553394,70.094200 35.745132,68.925644 37.936558,66.644310 
	C51.905186,52.102531 66.274757,37.957184 83.438347,27.141607 
	C99.471413,17.038425 116.432335,9.632133 135.765274,7.852345 
	C166.773453,4.997733 193.898315,13.322441 217.823715,33.176224 
	C228.759232,42.250736 236.814133,52.940376 240.359848,66.797798 
	C240.800110,68.518387 240.934753,70.317169 241.332321,72.853607 
	C237.690201,68.085823 234.655655,63.944813 231.445770,59.944504 
	C223.306320,49.800716 212.476425,44.493950 199.883575,41.937279 
	C179.549240,37.808891 162.944351,46.337326 148.459045,58.513386 
	C134.754547,70.033119 122.656586,83.501961 110.183640,96.433395 
	C103.682091,103.173920 97.836731,110.555359 91.855179,117.779938 
	C91.054161,118.747414 90.772018,120.559502 90.969109,121.872459 
	C92.500000,132.070984 86.329674,138.225296 77.645958,135.005402 
	C73.560814,133.490662 70.465462,128.613113 71.022003,124.567627 
	C71.739281,119.353760 75.423973,115.786385 80.761803,116.117142 
	C84.598412,116.354874 86.549881,114.199974 88.588638,111.814774 
	C95.959076,103.191902 103.123138,94.386780 110.670609,85.922890 
	C117.069107,78.747490 123.506721,71.527115 130.606400,65.074097 
	C143.831390,53.053703 157.458557,41.423244 175.446472,36.884289 
	C178.276382,36.170208 181.146240,35.614357 184.376709,34.940056 
M33.815651,84.643318 
	C36.435974,82.327820 38.831398,79.846611 35.755302,76.333206 
	C33.516048,73.775612 30.517775,73.145668 28.067282,75.690186 
	C26.823322,76.981873 25.851671,79.708038 26.361168,81.258553 
	C27.266609,84.013992 29.764288,85.657219 33.815651,84.643318 
M77.675117,129.884048 
	C80.062332,129.811737 82.681885,130.301315 84.746063,129.447769 
	C85.908249,128.967194 86.991974,126.066513 86.637383,124.616417 
	C85.917839,121.673882 83.822121,119.369102 80.227257,120.402336 
	C76.037270,121.606628 75.149483,124.373383 77.675117,129.884048 
M44.632572,111.013916 
	C40.703945,111.677742 39.141430,114.513680 40.275341,117.762085 
	C40.906727,119.570854 44.029663,121.884499 45.649063,121.622017 
	C47.624462,121.301826 50.416161,118.671753 50.661720,116.759125 
	C51.023777,113.939102 49.302647,111.009933 44.632572,111.013916 
M12.072170,126.083740 
	C12.763019,126.730011 13.354021,127.566612 14.161644,127.990288 
	C18.085854,130.048950 20.846193,129.048203 22.420734,125.121147 
	C24.020714,121.130646 21.141369,119.910828 18.374062,118.790817 
	C14.847016,117.363304 12.174079,120.136597 12.072170,126.083740 
M86.584038,86.117516 
	C85.858803,86.484673 84.720528,86.678650 84.481163,87.249527 
	C83.538033,89.498947 82.340706,91.873657 82.370239,94.187408 
	C82.382431,95.142136 85.444008,97.030090 86.780830,96.768341 
	C88.795166,96.373909 91.466209,94.851303 92.165672,93.123230 
	C93.803627,89.076553 90.029869,87.744896 86.584038,86.117516 
z"/>
<path fill="#000000" opacity="1.000000" stroke="none" 
	d="
M223.976868,136.753967 
	C222.541092,139.951553 220.862259,143.247192 217.232971,141.398636 
	C215.284790,140.406342 213.594238,137.426971 213.347672,135.173553 
	C213.216049,133.970551 216.231171,131.566055 218.124863,131.183746 
	C221.659912,130.470078 223.826447,132.586090 223.976868,136.753967 
z"/>
<path fill="#000000" opacity="1.000000" stroke="none" 
	d="
M227.998932,93.978836 
	C225.648315,89.971619 228.413208,87.823906 230.845108,86.927124 
	C232.495239,86.318626 235.729889,87.400467 236.891708,88.832870 
	C237.978439,90.172699 238.083130,94.303612 237.181992,94.854698 
	C235.176483,96.081192 232.278687,95.949661 229.728500,96.100883 
	C229.207123,96.131805 228.615372,94.976105 227.998932,93.978836 
z"/>
<path fill="#000000" opacity="1.000000" stroke="none" 
	d="
M203.483521,94.205948 
	C207.533279,93.792084 210.209946,95.476540 209.782272,99.142990 
	C209.540131,101.219078 207.379257,104.266350 205.620331,104.627975 
	C203.926666,104.976181 200.894363,102.885406 199.774734,101.055717 
	C197.802917,97.833366 200.397827,95.831985 203.483521,94.205948 
z"/>
<path fill="#000000" opacity="1.000000" stroke="none" 
	d="
M167.998260,123.232819 
	C168.223724,126.988121 166.969879,128.790833 163.319901,129.076385 
	C159.717133,129.358231 157.461670,127.025139 157.490906,124.562660 
	C157.516693,122.390549 159.769058,119.210999 161.829285,118.333496 
	C165.113953,116.934456 167.052383,119.731133 167.998260,123.232819 
z"/>
<path fill="#000000" opacity="1.000000" stroke="none" 
	d="
M173.006226,92.976471 
	C169.106522,96.004951 165.261963,95.523544 163.487320,91.918053 
	C161.692291,88.271141 164.460831,86.346291 167.083603,85.144775 
	C168.411423,84.536484 171.488815,84.904251 171.923904,85.765709 
	C172.914169,87.726456 172.760925,90.264740 173.006226,92.976471 
z"/>
<path fill="#000000" opacity="1.000000" stroke="none" 
	d="
M33.445087,84.789169 
	C29.764288,85.657219 27.266609,84.013992 26.361168,81.258553 
	C25.851671,79.708038 26.823322,76.981873 28.067282,75.690186 
	C30.517775,73.145668 33.516048,73.775612 35.755302,76.333206 
	C38.831398,79.846611 36.435974,82.327820 33.445087,84.789169 
z"/>
<path fill="#000000" opacity="1.000000" stroke="none" 
	d="
M77.393196,129.596817 
	C75.149483,124.373383 76.037270,121.606628 80.227257,120.402336 
	C83.822121,119.369102 85.917839,121.673882 86.637383,124.616417 
	C86.991974,126.066513 85.908249,128.967194 84.746063,129.447769 
	C82.681885,130.301315 80.062332,129.811737 77.393196,129.596817 
z"/>
<path fill="#000000" opacity="1.000000" stroke="none" 
	d="
M45.037636,111.008850 
	C49.302647,111.009933 51.023777,113.939102 50.661720,116.759125 
	C50.416161,118.671753 47.624462,121.301826 45.649063,121.622017 
	C44.029663,121.884499 40.906727,119.570854 40.275341,117.762085 
	C39.141430,114.513680 40.703945,111.677742 45.037636,111.008850 
z"/>
<path fill="#000000" opacity="1.000000" stroke="none" 
	d="
M12.042504,125.673264 
	C12.174079,120.136597 14.847016,117.363304 18.374062,118.790817 
	C21.141369,119.910828 24.020714,121.130646 22.420734,125.121147 
	C20.846193,129.048203 18.085854,130.048950 14.161644,127.990288 
	C13.354021,127.566612 12.763019,126.730011 12.042504,125.673264 
z"/>
<path fill="#000000" opacity="1.000000" stroke="none" 
	d="
M86.957008,86.111526 
	C90.029869,87.744896 93.803627,89.076553 92.165672,93.123230 
	C91.466209,94.851303 88.795166,96.373909 86.780830,96.768341 
	C85.444008,97.030090 82.382431,95.142136 82.370239,94.187408 
	C82.340706,91.873657 83.538033,89.498947 84.481163,87.249527 
	C84.720528,86.678650 85.858803,86.484673 86.957008,86.111526 
z"/>
</svg>